<svg xmlns="http://www.w3.org/2000/svg" width="1200" height="630" viewBox="0 0 1200 630" role="img" aria-labelledby="title description">
  <title id="title">Maarif Ders Merkezi — Öğretmen çalışma alanı</title>
  <desc id="description">Mor çalışma alanı kenar çubuğu, materyal kütüphanesi ve öğretmenler için kaynak keşif akışı.</desc>
  <rect width="1200" height="630" fill="#f8f7fa"/>
  <rect width="245" height="630" fill="#3f0e40"/>
  <rect x="24" y="22" width="38" height="38" rx="9" fill="#fff"/>
  <path d="M30 32c6-2 12-1 13 3 5-4 11-5 17-3v20c-6-2-12-1-17 3-1-4-7-5-13-3V32Z" fill="none" stroke="#4a154b" stroke-width="2.1" stroke-linejoin="round"/>
  <path d="M43 35v20" stroke="#4a154b" stroke-width="2"/>
  <text x="73" y="39" fill="#fff" font-family="Arial, Helvetica, sans-serif" font-size="17" font-weight="800">MAARİF</text>
  <text x="73" y="53" fill="#ccb6d0" font-family="Arial, Helvetica, sans-serif" font-size="8" font-weight="700" letter-spacing="1.3">DERS MERKEZİ</text>
  <rect x="14" y="94" width="217" height="45" rx="7" fill="#633568"/>
  <path d="M33 110h14v16H33zM33 114h14" fill="none" stroke="#fff" stroke-width="1.5" stroke-linecap="round"/>
  <text x="57" y="120" fill="#fff" font-family="Arial, Helvetica, sans-serif" font-size="12" font-weight="700">Materyal kütüphanesi</text>
  <text x="28" y="169" fill="#c5a6cb" font-family="Arial, Helvetica, sans-serif" font-size="10" font-weight="700" letter-spacing="1.2">KANALLAR</text>
  <text x="31" y="197" fill="#f7eef8" font-family="Arial, Helvetica, sans-serif" font-size="13"># materyal-kütüphanesi</text>
  <text x="31" y="225" fill="#d8c5dd" font-family="Arial, Helvetica, sans-serif" font-size="13"># öğretmen-notları</text>
  <path d="M0 570H245" stroke="#714774"/>
  <circle cx="35" cy="596" r="15" fill="#77518b"/>
  <text x="35" y="601" text-anchor="middle" fill="#fff" font-family="Arial, Helvetica, sans-serif" font-size="12" font-weight="700">Ö</text>
  <text x="59" y="593" fill="#fff" font-family="Arial, Helvetica, sans-serif" font-size="12" font-weight="700">Öğretmen</text>
  <text x="59" y="608" fill="#ccb6d0" font-family="Arial, Helvetica, sans-serif" font-size="9">Çalışma alanı</text>
  <rect x="245" y="0" width="955" height="58" fill="#fff"/>
  <path d="M245 58H1200" stroke="#e7e2e9"/>
  <text x="281" y="35" fill="#45404a" font-family="Arial, Helvetica, sans-serif" font-size="13">Maarif Ders Merkezi</text>
  <rect x="580" y="13" width="340" height="32" rx="6" fill="#fff" stroke="#d5ccd9"/>
  <circle cx="599" cy="29" r="6" fill="none" stroke="#77717d" stroke-width="1.6"/>
  <path d="m603 33 4 4" stroke="#77717d" stroke-width="1.6" stroke-linecap="round"/>
  <text x="614" y="33" fill="#77717d" font-family="Arial, Helvetica, sans-serif" font-size="11">Bu çalışma alanında ara</text>
  <rect x="276" y="84" width="892" height="202" rx="12" fill="#f5eff8" stroke="#eadcf0"/>
  <text x="312" y="118" fill="#765583" font-family="Arial, Helvetica, sans-serif" font-size="11" font-weight="800" letter-spacing="1.5">ÖĞRETMEN ÇALIŞMA ALANI</text>
  <text x="312" y="168" fill="#351238" font-family="Arial, Helvetica, sans-serif" font-size="39" font-weight="800">Dersine iyi bir</text>
  <text x="312" y="212" fill="#74428c" font-family="Arial, Helvetica, sans-serif" font-size="39" font-weight="800">başlangıç yap.</text>
  <text x="312" y="243" fill="#6d5a73" font-family="Arial, Helvetica, sans-serif" font-size="14">Kaynakları bul, programla ilişkisini incele ve dersine uyarla.</text>
  <rect x="898" y="125" width="144" height="122" rx="19" fill="#fff" opacity=".7" transform="rotate(5 898 125)"/>
  <path d="M920 153c18-6 31-1 42 7 12-8 25-13 42-7v61c-17-6-30-1-42 8-11-9-24-14-42-8v-61Z" fill="#fff" stroke="#4a154b" stroke-width="3" stroke-linejoin="round"/>
  <path d="M962 160v62m-32-50 22 4m-22 10 22 4m20-18 22-4m-22 14 22-4" stroke="#a78ab5" stroke-width="3" stroke-linecap="round"/>
  <text x="283" y="330" fill="#77717d" font-family="Arial, Helvetica, sans-serif" font-size="10" font-weight="800" letter-spacing="1.2">KANAL</text>
  <text x="283" y="360" fill="#1d1c1f" font-family="Arial, Helvetica, sans-serif" font-size="25" font-weight="800"># materyal-kütüphanesi</text>
  <text x="283" y="385" fill="#77717d" font-family="Arial, Helvetica, sans-serif" font-size="13">Ders materyallerini konu, sınıf düzeyi ve ders bilgisine göre keşfet.</text>
  <rect x="281" y="415" width="420" height="160" rx="9" fill="#fff" stroke="#e7e2e9"/>
  <rect x="720" y="415" width="448" height="160" rx="9" fill="#fff" stroke="#e7e2e9"/>
  <rect x="300" y="433" width="105" height="21" rx="5" fill="#f0e7f5"/>
  <text x="313" y="447" fill="#6f2da8" font-family="Arial, Helvetica, sans-serif" font-size="10" font-weight="700">Ders materyali</text>
  <text x="300" y="484" fill="#1d1c1f" font-family="Arial, Helvetica, sans-serif" font-size="18" font-weight="700">Kaynak akışı</text>
  <text x="300" y="507" fill="#77717d" font-family="Arial, Helvetica, sans-serif" font-size="12">Ara, filtrele, değerlendir.</text>
  <path d="M300 530H675" stroke="#e7e2e9"/>
  <rect x="300" y="543" width="112" height="24" rx="5" fill="#4a154b"/>
  <text x="356" y="559" text-anchor="middle" fill="#fff" font-family="Arial, Helvetica, sans-serif" font-size="10" font-weight="700">Kaynağı aç →</text>
  <rect x="741" y="433" width="100" height="21" rx="5" fill="#e4f5ee"/>
  <text x="754" y="447" fill="#168567" font-family="Arial, Helvetica, sans-serif" font-size="10" font-weight="700">Öğretmen notu</text>
  <text x="741" y="484" fill="#1d1c1f" font-family="Arial, Helvetica, sans-serif" font-size="18" font-weight="700">Kendi yöntemini kur</text>
  <text x="741" y="508" fill="#77717d" font-family="Arial, Helvetica, sans-serif" font-size="12">Kaynak bir başlangıçtır, son karar senin.</text>
  <path d="M741 530H1144" stroke="#e7e2e9"/>
  <text x="741" y="557" fill="#6f2da8" font-family="Arial, Helvetica, sans-serif" font-size="11" font-weight="700">ÖĞRETMEN ODAKLI TASARIM ↗</text>
</svg>